<svg width="61" height="65" viewBox="0 0 61 65" fill="none" xmlns="http://www.w3.org/2000/svg">
<rect width="61" height="64.1032" rx="15" fill="white"/>
<path d="M14.0053 25.797C10.1997 32.3848 12.619 42.382 16.8273 48.4437C18.9279 51.4743 21.0547 54.1946 23.9676 54.1946C24.0225 54.1946 24.0775 54.1936 24.1339 54.1914C25.5025 54.1369 26.4915 53.7166 27.4477 53.3104C28.5213 52.854 29.6316 52.3821 31.3731 52.3821C33.0299 52.3821 34.0872 52.8386 35.1097 53.28C36.1174 53.715 37.1554 54.1649 38.6891 54.1362C41.9703 54.0752 43.9849 51.1398 45.7623 48.5502C47.617 45.8463 48.5474 43.2211 48.8613 42.2179L48.874 42.178C48.9338 41.9997 48.8494 41.8051 48.678 41.7266C48.6733 41.7244 48.6559 41.7172 48.651 41.7151C48.0732 41.4794 43.0048 39.2364 42.9515 33.1228C42.902 28.1559 46.7538 25.5257 47.5262 25.049L47.5623 25.0266C47.6459 24.9729 47.7042 24.8876 47.724 24.7902C47.7438 24.6928 47.7231 24.5915 47.667 24.5097C45.0084 20.6284 40.9335 20.0435 39.2929 19.9731C39.0549 19.9494 38.8091 19.9375 38.5624 19.9375C36.6355 19.9375 34.7896 20.6635 33.3066 21.2468C32.283 21.6495 31.3988 21.9972 30.7889 21.9972C30.1037 21.9972 29.2145 21.6452 28.1848 21.2377C26.8078 20.6925 25.247 20.0747 23.5948 20.0747C23.5554 20.0747 23.5166 20.0752 23.4783 20.0759C19.6366 20.1323 16.0066 22.3248 14.0053 25.797Z" fill="black"/>
<path d="M39.2963 9.29032C36.9699 9.38484 34.1792 10.8134 32.5111 12.7624C31.0936 14.4006 29.7087 17.132 30.0736 19.8852C30.0964 20.0574 30.237 20.1904 30.4107 20.2038C30.5677 20.216 30.728 20.2222 30.8877 20.2223C33.1624 20.2223 35.6164 18.9669 37.2922 16.9455C39.056 14.8109 39.9479 12.0716 39.6781 9.61791C39.6569 9.42562 39.4873 9.28281 39.2963 9.29032Z" fill="black"/>
</svg>
