<svg width="40" height="39" viewBox="0 0 40 39" fill="none" xmlns="http://www.w3.org/2000/svg">
<path d="M20.08 0C14.7882 0 14.1228 0.024375 12.0436 0.117C9.96438 0.2145 8.54819 0.541125 7.3075 1.02375C6.00611 1.51325 4.82732 2.28108 3.85356 3.27356C2.86169 4.24782 2.09395 5.42646 1.60375 6.7275C1.12113 7.96575 0.792064 9.38437 0.697002 11.4562C0.604377 13.5403 0.580002 14.2033 0.580002 19.5024C0.580002 24.7967 0.604377 25.4597 0.697002 27.5389C0.794502 29.6156 1.12113 31.0318 1.60375 32.2725C2.10344 33.5546 2.76888 34.6418 3.85356 35.7264C4.93581 36.8111 6.02294 37.479 7.30506 37.9762C8.54819 38.4589 9.96194 38.7879 12.0387 38.883C14.1203 38.9756 14.7833 39 20.08 39C25.3767 39 26.0373 38.9756 28.1189 38.883C30.1932 38.7855 31.6143 38.4589 32.8549 37.9762C34.1555 37.4865 35.3334 36.7187 36.3064 35.7264C37.3911 34.6418 38.0566 33.5546 38.5563 32.2725C39.0364 31.0318 39.3655 29.6156 39.463 27.5389C39.5556 25.4597 39.58 24.7967 39.58 19.5C39.58 14.2033 39.5556 13.5403 39.463 11.4587C39.3655 9.38438 39.0364 7.96575 38.5563 6.7275C38.0661 5.42642 37.2984 4.24777 36.3064 3.27356C35.333 2.28071 34.1541 1.51282 32.8525 1.02375C31.6094 0.541125 30.1908 0.212063 28.1164 0.117C26.0348 0.024375 25.3743 0 20.0751 0H20.0824H20.08ZM18.3323 3.51488H20.0824C25.2889 3.51488 25.9056 3.53194 27.9604 3.627C29.8617 3.71231 30.8952 4.03163 31.5826 4.29731C32.4918 4.65075 33.1426 5.07487 33.8251 5.75737C34.5076 6.43988 34.9293 7.08825 35.2827 7.99988C35.5508 8.68481 35.8677 9.71831 35.953 11.6196C36.0481 13.6744 36.0676 14.2911 36.0676 19.4951C36.0676 24.6992 36.0481 25.3183 35.953 27.3731C35.8677 29.2744 35.5484 30.3054 35.2827 30.9928C34.9701 31.8395 34.4711 32.6051 33.8226 33.2329C33.1401 33.9154 32.4918 34.3371 31.5801 34.6905C30.8976 34.9586 29.8641 35.2755 27.9604 35.3633C25.9056 35.4559 25.2889 35.4778 20.0824 35.4778C14.8759 35.4778 14.2568 35.4559 12.202 35.3633C10.3008 35.2755 9.26969 34.9586 8.58231 34.6905C7.73528 34.3783 6.969 33.8802 6.33981 33.2329C5.69083 32.6041 5.19108 31.8378 4.87731 30.9904C4.61163 30.3054 4.29231 29.2719 4.207 27.3707C4.11438 25.3159 4.09488 24.6992 4.09488 19.4902C4.09488 14.2837 4.11438 13.6695 4.207 11.6147C4.29475 9.71344 4.61163 8.67994 4.87975 7.99256C5.23319 7.08337 5.65731 6.43256 6.33981 5.75006C7.02231 5.06756 7.67069 4.64587 8.58231 4.29244C9.26969 4.02431 10.3008 3.70744 12.202 3.61969C14.0009 3.53681 14.698 3.51244 18.3323 3.51V3.51488ZM30.4906 6.75187C30.1833 6.75187 29.879 6.8124 29.5951 6.93C29.3112 7.04759 29.0532 7.21996 28.8359 7.43725C28.6186 7.65453 28.4463 7.91249 28.3287 8.1964C28.2111 8.4803 28.1506 8.78458 28.1506 9.09188C28.1506 9.39917 28.2111 9.70345 28.3287 9.98735C28.4463 10.2713 28.6186 10.5292 28.8359 10.7465C29.0532 10.9638 29.3112 11.1362 29.5951 11.2538C29.879 11.3713 30.1833 11.4319 30.4906 11.4319C31.1112 11.4319 31.7064 11.1853 32.1452 10.7465C32.584 10.3077 32.8306 9.71248 32.8306 9.09188C32.8306 8.47127 32.584 7.87608 32.1452 7.43725C31.7064 6.99841 31.1112 6.75187 30.4906 6.75187ZM20.0824 9.48675C18.7542 9.46603 17.4351 9.70975 16.2019 10.2037C14.9687 10.6977 13.8461 11.432 12.8995 12.364C11.9529 13.296 11.2011 14.407 10.6879 15.6323C10.1748 16.8576 9.91051 18.1728 9.91051 19.5012C9.91051 20.8296 10.1748 22.1448 10.6879 23.3701C11.2011 24.5954 11.9529 25.7064 12.8995 26.6384C13.8461 27.5704 14.9687 28.3047 16.2019 28.7987C17.4351 29.2927 18.7542 29.5364 20.0824 29.5157C22.7114 29.4747 25.2188 28.4015 27.0634 26.5279C28.908 24.6543 29.9419 22.1305 29.9419 19.5012C29.9419 16.872 28.908 14.3481 27.0634 12.4745C25.2188 10.6009 22.7114 9.52777 20.0824 9.48675ZM20.0824 12.9992C21.8066 12.9992 23.4601 13.6841 24.6792 14.9032C25.8983 16.1224 26.5833 17.7759 26.5833 19.5C26.5833 21.2241 25.8983 22.8776 24.6792 24.0968C23.4601 25.3159 21.8066 26.0008 20.0824 26.0008C18.3583 26.0008 16.7048 25.3159 15.4857 24.0968C14.2665 22.8776 13.5816 21.2241 13.5816 19.5C13.5816 17.7759 14.2665 16.1224 15.4857 14.9032C16.7048 13.6841 18.3583 12.9992 20.0824 12.9992Z" fill="#00C6B4"/>
</svg>
