<svg width="39" height="32" viewBox="0 0 39 32" fill="none" xmlns="http://www.w3.org/2000/svg">
<path d="M12.2509 31.3201C26.9685 31.3201 35.0196 19.3136 35.0196 8.91971C35.0196 8.58373 35.0196 8.24295 35.0049 7.90697C36.5724 6.78979 37.9252 5.40666 39 3.82238C37.5358 4.45799 35.9842 4.8769 34.3956 5.06552C36.069 4.0807 37.3223 2.53118 37.9226 0.704949C36.3504 1.622 34.6296 2.26576 32.8356 2.60805C31.6294 1.34337 30.0334 0.505563 28.2947 0.224393C26.556 -0.0567764 24.7716 0.234386 23.218 1.05278C21.6644 1.87117 20.4282 3.17113 19.701 4.75128C18.9737 6.33143 18.796 8.10359 19.1953 9.79327C16.0137 9.6362 12.9012 8.82244 10.0597 7.40477C7.21809 5.98711 4.71092 3.9972 2.70075 1.5641C1.68027 3.29941 1.36884 5.35206 1.8297 7.30524C2.29056 9.25841 3.48917 10.9657 5.18212 12.0803C3.9135 12.0379 2.67277 11.7025 1.56 11.1012V11.2092C1.56219 13.027 2.20181 14.7884 3.37075 16.1955C4.5397 17.6027 6.16626 18.5693 7.9755 18.932C7.28877 19.1182 6.57937 19.2111 5.86706 19.208C5.3649 19.2095 4.86374 19.1637 4.37044 19.0712C4.88179 20.636 5.87748 22.0042 7.21804 22.9841C8.5586 23.964 10.1769 24.5065 11.8463 24.5357C9.01035 26.7287 5.50729 27.9181 1.90125 27.9123C1.26584 27.9149 0.630881 27.8789 0 27.8043C3.65994 30.1016 7.91041 31.3214 12.2509 31.3201Z" fill="#00C6B4"/>
</svg>
