<svg width="40" height="29" viewBox="0 0 40 29" fill="none" xmlns="http://www.w3.org/2000/svg">
<path d="M20.1455 0.679688H20.3625C22.3662 0.687183 32.5191 0.762137 35.2565 1.51667C36.0841 1.74694 36.8382 2.1958 37.4435 2.81838C38.0488 3.44095 38.4841 4.21544 38.7058 5.06445C38.952 6.01386 39.1251 7.27058 39.2421 8.56727L39.2665 8.82711L39.3201 9.4767L39.3396 9.73654C39.4981 12.0201 39.5176 14.1588 39.52 14.626V14.8134C39.5176 15.2981 39.4956 17.5817 39.3201 19.9602L39.3006 20.2225L39.2787 20.4823C39.1568 21.9115 38.9764 23.3306 38.7058 24.3749C38.4847 25.2243 38.0497 25.9991 37.4443 26.6218C36.8389 27.2445 36.0844 27.6931 35.2565 27.9227C32.4289 28.7022 21.6812 28.7572 20.1918 28.7597H19.8457C19.0925 28.7597 15.9771 28.7447 12.7107 28.6298L12.2963 28.6148L12.0842 28.6048L11.6674 28.5873L11.2505 28.5698C8.54474 28.4474 5.96814 28.25 4.78101 27.9202C3.9534 27.6908 3.19913 27.2426 2.59376 26.6204C1.98839 25.9982 1.55318 25.2238 1.33173 24.3749C1.06115 23.3331 0.880762 21.9115 0.758879 20.4823L0.739378 20.22L0.719877 19.9602C0.599573 18.2672 0.532908 16.5707 0.519989 14.8733L0.519989 14.566C0.524864 14.0289 0.544366 12.1725 0.675999 10.1238L0.693062 9.86646L0.700375 9.73654L0.719877 9.4767L0.773505 8.82711L0.797881 8.56727C0.914889 7.27058 1.08796 6.01136 1.33416 5.06445C1.55524 4.2151 1.99029 3.44024 2.59568 2.81756C3.20108 2.19488 3.95554 1.74625 4.78344 1.51667C5.97058 1.19187 8.54718 0.991993 11.253 0.867071L11.6674 0.849582L12.0866 0.834591L12.2963 0.827096L12.7131 0.809607C15.0331 0.733091 17.3539 0.690613 19.6751 0.682186H20.1455V0.679688ZM16.121 8.69969V20.7372L26.2543 14.7209L16.121 8.69969Z" fill="#00C6B4"/>
</svg>
